<svg width="212" height="43" viewBox="0 0 212 43" fill="none" xmlns="http://www.w3.org/2000/svg">
<path d="M0.340813 38C0.820813 37.712 1.23681 37.168 1.58881 36.368C1.97281 35.568 2.29281 34.656 2.54881 33.632C2.83681 32.608 3.04481 31.552 3.17281 30.464C3.30081 29.344 3.36481 28.32 3.36481 27.392C3.36481 25.952 3.20481 24.576 2.88481 23.264C2.59681 21.952 2.18081 20.96 1.63681 20.288C2.14881 19.776 2.56481 19.104 2.88481 18.272C3.23681 17.408 3.50881 16.496 3.70081 15.536C3.89281 14.544 4.02081 13.536 4.08481 12.512C4.14881 11.488 4.18081 10.528 4.18081 9.632C4.18081 8.896 4.16481 8.256 4.13281 7.712C4.10081 7.168 4.06881 6.752 4.03681 6.464C3.30081 6.208 2.53281 5.68 1.73281 4.88C0.964813 4.08 0.388813 3.216 0.00481254 2.288C2.05281 2.512 3.98881 2.672 5.81281 2.768C7.66881 2.832 9.41281 2.864 11.0448 2.864C14.5328 2.864 17.3488 2.752 19.4928 2.528C21.6368 2.304 23.3328 2.192 24.5808 2.192C24.8368 2.192 25.0608 2.208 25.2528 2.24C25.4448 2.24 25.6208 2.256 25.7808 2.288C25.5888 2.64 25.3808 3.28 25.1568 4.208C24.9648 5.136 24.7728 6.16 24.5808 7.28C24.3888 8.368 24.2128 9.44 24.0528 10.496C23.9248 11.52 23.8288 12.288 23.7648 12.8L23.4288 12.944C22.3088 12.304 21.4928 11.584 20.9808 10.784C20.5008 9.984 20.1328 9.024 19.8768 7.904C19.4288 7.552 18.8688 7.328 18.1968 7.232C17.5248 7.136 16.6768 7.088 15.6528 7.088C14.8208 7.088 14.0208 7.104 13.2528 7.136C12.4848 7.168 11.8768 7.184 11.4288 7.184C11.1728 8.432 10.9808 9.952 10.8528 11.744C10.7248 13.536 10.6288 15.44 10.5648 17.456C11.0128 17.52 11.4608 17.568 11.9088 17.6C12.3888 17.6 12.7568 17.6 13.0128 17.6C13.6848 17.6 14.3408 17.344 14.9808 16.832C15.6528 16.288 16.2928 15.6 16.9008 14.768C17.0608 15.152 17.2208 15.6 17.3808 16.112C17.5408 16.592 17.7168 17.088 17.9088 17.6C18.1328 18.08 18.3728 18.544 18.6288 18.992C18.8848 19.44 19.1888 19.776 19.5408 20C19.2528 20.288 18.9648 20.656 18.6768 21.104C18.4208 21.552 18.1648 22.032 17.9088 22.544C17.6848 23.056 17.4608 23.568 17.2368 24.08C17.0448 24.592 16.8688 25.056 16.7088 25.472C16.5168 25.12 16.2928 24.736 16.0368 24.32C15.7808 23.904 15.5088 23.52 15.2208 23.168C14.9328 22.816 14.6128 22.528 14.2608 22.304C13.9408 22.048 13.5888 21.92 13.2048 21.92C12.9168 21.92 12.5008 21.936 11.9568 21.968C11.4128 22 10.9168 22.064 10.4688 22.16V23.024C10.4688 25.04 10.4848 26.96 10.5168 28.784C10.5808 30.576 10.6768 32.144 10.8048 33.488L18.9168 34.304C19.3648 32.32 20.1488 30.56 21.2688 29.024C22.4208 27.488 23.6528 26 24.9648 24.56L25.2528 24.656C25.1568 25.392 25.0928 26.128 25.0608 26.864C25.0288 27.568 25.0128 28.256 25.0128 28.928C25.0128 30.592 25.0928 32.096 25.2528 33.44C25.4128 34.784 25.6048 35.792 25.8288 36.464C25.2848 36.528 24.7408 36.624 24.1968 36.752C23.6848 36.848 23.1248 37.024 22.5168 37.28C21.9088 37.536 21.2528 37.888 20.5488 38.336C19.8768 38.784 19.1248 39.36 18.2928 40.064C15.6048 39.264 12.9488 38.656 10.3248 38.24C7.70081 37.856 5.33281 37.664 3.22081 37.664C2.19681 37.664 1.25281 37.824 0.388813 38.144L0.340813 38ZM50.4551 25.28C50.4551 27.072 50.4871 28.496 50.5511 29.552C50.6151 30.608 50.7271 31.44 50.8871 32.048C51.0791 32.624 51.3031 33.04 51.5591 33.296C51.8471 33.52 52.1991 33.696 52.6151 33.824V34.352C52.1671 34.512 51.6871 34.8 51.1751 35.216C50.6951 35.6 50.2151 36.032 49.7351 36.512C49.2551 36.992 48.8231 37.488 48.4391 38C48.0551 38.512 47.7671 38.96 47.5751 39.344C46.9031 38.896 46.2951 38.304 45.7511 37.568C45.2071 36.832 44.7751 36.096 44.4551 35.36C43.8791 35.744 43.2231 36.128 42.4871 36.512C41.7511 36.896 40.9671 37.264 40.1351 37.616C39.3351 37.936 38.5031 38.224 37.6391 38.48C36.7751 38.768 35.9431 39.008 35.1431 39.2C34.3751 38.368 33.5431 37.68 32.6471 37.136C31.7511 36.592 30.8391 36.192 29.9111 35.936C30.2631 34.592 30.4711 33.328 30.5351 32.144C30.5991 30.928 30.6311 29.712 30.6311 28.496C30.6311 26.96 30.6151 25.648 30.5831 24.56C30.5511 23.44 30.4871 22.496 30.3911 21.728C30.3271 20.928 30.2471 20.288 30.1511 19.808C30.0551 19.296 29.9431 18.88 29.8151 18.56C31.2551 18.304 32.7111 17.824 34.1831 17.12C35.6871 16.384 37.1751 15.504 38.6471 14.48C39.6391 14.896 40.5671 15.216 41.4311 15.44C42.2951 15.664 43.2231 15.824 44.2151 15.92V8.96C44.2151 8.16 44.1991 7.44 44.1671 6.8C44.1351 6.16 44.0551 5.568 43.9271 5.024C43.8311 4.48 43.6871 3.952 43.4951 3.44C43.3031 2.928 43.0631 2.4 42.7751 1.856C43.4151 2.08 44.1671 2.192 45.0311 2.192C46.0871 2.192 47.1911 2.016 48.3431 1.664C49.5271 1.312 50.7911 0.815999 52.1351 0.175998C51.4951 0.943997 51.0471 1.968 50.7911 3.248C50.5671 4.528 50.4551 6 50.4551 7.664V25.28ZM40.2311 19.232C39.8471 19.584 39.3191 19.984 38.6471 20.432C38.0071 20.848 37.4311 21.168 36.9191 21.392C36.9831 22.096 37.0151 23.056 37.0151 24.272C37.0471 25.456 37.0631 26.592 37.0631 27.68C37.0631 28.704 37.0311 29.728 36.9671 30.752C36.9351 31.776 36.8871 32.72 36.8231 33.584C37.4631 33.552 38.1351 33.472 38.8391 33.344C39.5751 33.184 40.2791 33.008 40.9511 32.816C41.6231 32.624 42.2471 32.416 42.8231 32.192C43.3991 31.936 43.8631 31.696 44.2151 31.472V20.192C43.7031 20.16 43.0631 20.048 42.2951 19.856C41.5271 19.664 40.8391 19.456 40.2311 19.232ZM80.0317 41.984C80.2237 41.344 80.3997 40.544 80.5597 39.584C80.7197 38.656 80.8477 37.728 80.9437 36.8C81.0397 35.84 81.1197 34.96 81.1837 34.16C81.2477 33.36 81.2797 32.784 81.2797 32.432C81.2797 30.608 81.2637 28.784 81.2317 26.96C81.2317 25.136 81.2317 23.312 81.2317 21.488L80.6077 20.816L75.2317 23.12C75.1997 23.824 75.1837 24.752 75.1837 25.904C75.1837 27.056 75.1837 28.224 75.1837 29.408V33.776C75.1837 35.792 75.6157 36.96 76.4797 37.28V38H67.9357V37.28C68.3197 37.12 68.6237 36.8 68.8477 36.32C69.1037 35.808 69.2317 35.104 69.2317 34.208V21.488L68.6077 20.816L63.2797 23.12V33.776C63.2797 35.792 63.7117 36.96 64.5757 37.28V38H55.7437V37.28C56.1277 37.12 56.4317 36.8 56.6557 36.32C56.9117 35.808 57.0397 35.104 57.0397 34.208V17.456L55.2637 16.688V16.16C56.3837 16 57.5997 15.792 58.9117 15.536C60.2237 15.248 61.3917 14.976 62.4157 14.72L63.2797 16.16V20.096C64.5277 19.2 65.6477 18.32 66.6397 17.456C67.6637 16.56 68.7037 15.504 69.7597 14.288C70.3037 14.8 70.7997 15.264 71.2477 15.68C71.6957 16.064 72.1437 16.416 72.5917 16.736C73.0717 17.056 73.5677 17.376 74.0797 17.696C74.5917 17.984 75.1837 18.288 75.8557 18.608L75.5677 19.904C76.7517 19.04 77.8237 18.176 78.7837 17.312C79.7437 16.448 80.7357 15.44 81.7597 14.288C82.3037 14.8 82.7997 15.264 83.2477 15.68C83.6957 16.064 84.1437 16.416 84.5917 16.736C85.0717 17.056 85.5677 17.376 86.0797 17.696C86.5917 17.984 87.1837 18.288 87.8557 18.608C87.7277 19.056 87.6157 19.536 87.5197 20.048C87.4557 20.528 87.3917 21.152 87.3277 21.92C87.2957 22.688 87.2637 23.632 87.2317 24.752C87.1997 25.872 87.1837 27.264 87.1837 28.928C87.1837 30.336 87.1837 31.504 87.1837 32.432C87.2157 33.328 87.2477 34.064 87.2797 34.64C87.3117 35.216 87.3597 35.696 87.4237 36.08C87.4877 36.432 87.5517 36.768 87.6157 37.088C86.9757 37.312 86.3197 37.616 85.6477 38C85.0077 38.384 84.3517 38.816 83.6797 39.296C83.0397 39.776 82.4317 40.272 81.8557 40.784C81.2797 41.296 80.7677 41.792 80.3197 42.272L80.0317 41.984ZM100.374 14.768C102.582 15.504 104.422 16 105.894 16.256C107.366 16.512 108.726 16.64 109.974 16.64C110.678 16.64 111.206 16.64 111.558 16.64C111.942 16.608 112.31 16.56 112.662 16.496C112.278 18.576 112.086 21.024 112.086 23.84C112.086 27.296 112.374 30.656 112.95 33.92C112.15 34.016 111.302 34.224 110.406 34.544C109.51 34.864 108.614 35.264 107.718 35.744C106.822 36.224 105.958 36.784 105.126 37.424C104.294 38.032 103.542 38.672 102.87 39.344C102.518 39.056 101.91 38.752 101.046 38.432C100.182 38.144 99.2376 37.872 98.2136 37.616C97.1896 37.36 96.1656 37.152 95.1416 36.992C94.1176 36.832 93.2696 36.752 92.5976 36.752C92.4056 36.752 92.2136 36.768 92.0216 36.8C91.8616 36.8 91.7016 36.816 91.5416 36.848C91.9896 36.464 92.3096 35.712 92.5016 34.592C92.7256 33.44 92.8376 31.952 92.8376 30.128C92.8376 29.2 92.8056 28.192 92.7416 27.104C92.6776 25.984 92.5816 24.928 92.4536 23.936C92.3576 22.944 92.2456 22.096 92.1176 21.392C91.9896 20.688 91.8616 20.256 91.7336 20.096C92.9816 19.872 94.3736 19.296 95.9096 18.368C97.4456 17.408 98.9336 16.208 100.374 14.768ZM106.134 20.864C104.662 20.736 103.222 20.528 101.814 20.24C100.406 19.92 99.3336 19.568 98.5976 19.184C98.7576 20.528 98.8696 21.792 98.9336 22.976C98.9976 24.128 99.0296 25.296 99.0296 26.48C99.0296 27.408 98.9976 28.464 98.9336 29.648C98.9016 30.8 98.8536 31.936 98.7896 33.056C99.8776 33.184 101.078 33.36 102.39 33.584C103.702 33.808 104.918 34.096 106.038 34.448L106.134 20.864ZM124.169 20.144C125.545 19.248 126.777 18.352 127.865 17.456C128.953 16.56 130.073 15.504 131.225 14.288C131.769 14.8 132.265 15.264 132.713 15.68C133.161 16.064 133.609 16.416 134.057 16.736C134.537 17.056 135.033 17.376 135.545 17.696C136.057 17.984 136.649 18.288 137.321 18.608C137.193 19.056 137.081 19.536 136.985 20.048C136.921 20.528 136.857 21.152 136.793 21.92C136.761 22.688 136.729 23.632 136.697 24.752C136.665 25.872 136.649 27.264 136.649 28.928C136.649 30.336 136.649 31.504 136.649 32.432C136.681 33.328 136.713 34.064 136.745 34.64C136.777 35.216 136.825 35.696 136.889 36.08C136.953 36.432 137.017 36.768 137.081 37.088C136.441 37.312 135.785 37.616 135.113 38C134.473 38.384 133.817 38.816 133.145 39.296C132.505 39.776 131.897 40.272 131.321 40.784C130.745 41.296 130.233 41.792 129.785 42.272L129.497 41.984C129.689 41.344 129.865 40.544 130.025 39.584C130.185 38.656 130.313 37.728 130.409 36.8C130.505 35.84 130.585 34.96 130.649 34.16C130.713 33.36 130.745 32.784 130.745 32.432C130.745 30.608 130.729 28.784 130.697 26.96C130.697 25.136 130.697 23.312 130.697 21.488L130.073 20.816L124.169 23.456V33.776C124.169 35.792 124.601 36.96 125.465 37.28V38H116.633V37.28C117.017 37.12 117.321 36.8 117.545 36.32C117.801 35.808 117.929 35.104 117.929 34.208V17.456L116.153 16.688V16.16C117.273 16 118.489 15.792 119.801 15.536C121.113 15.248 122.281 14.976 123.305 14.72L124.169 16.16V20.144ZM162.111 25.28C162.111 27.072 162.143 28.496 162.207 29.552C162.271 30.608 162.383 31.44 162.543 32.048C162.735 32.624 162.959 33.04 163.215 33.296C163.503 33.52 163.855 33.696 164.271 33.824V34.352C163.823 34.512 163.343 34.8 162.831 35.216C162.351 35.6 161.871 36.032 161.391 36.512C160.911 36.992 160.479 37.488 160.095 38C159.711 38.512 159.423 38.96 159.231 39.344C158.559 38.896 157.951 38.304 157.407 37.568C156.863 36.832 156.431 36.096 156.111 35.36C155.535 35.744 154.879 36.128 154.143 36.512C153.407 36.896 152.623 37.264 151.791 37.616C150.991 37.936 150.159 38.224 149.295 38.48C148.431 38.768 147.599 39.008 146.799 39.2C146.031 38.368 145.199 37.68 144.303 37.136C143.407 36.592 142.495 36.192 141.567 35.936C141.919 34.592 142.127 33.328 142.191 32.144C142.255 30.928 142.287 29.712 142.287 28.496C142.287 26.96 142.271 25.648 142.239 24.56C142.207 23.44 142.143 22.496 142.047 21.728C141.983 20.928 141.903 20.288 141.807 19.808C141.711 19.296 141.599 18.88 141.471 18.56C142.911 18.304 144.367 17.824 145.839 17.12C147.343 16.384 148.831 15.504 150.303 14.48C151.295 14.896 152.223 15.216 153.087 15.44C153.951 15.664 154.879 15.824 155.871 15.92V8.96C155.871 8.16 155.855 7.44 155.823 6.8C155.791 6.16 155.711 5.568 155.583 5.024C155.487 4.48 155.343 3.952 155.151 3.44C154.959 2.928 154.719 2.4 154.431 1.856C155.071 2.08 155.823 2.192 156.687 2.192C157.743 2.192 158.847 2.016 159.999 1.664C161.183 1.312 162.447 0.815999 163.791 0.175998C163.151 0.943997 162.703 1.968 162.447 3.248C162.223 4.528 162.111 6 162.111 7.664V25.28ZM151.887 19.232C151.503 19.584 150.975 19.984 150.303 20.432C149.663 20.848 149.087 21.168 148.575 21.392C148.639 22.096 148.671 23.056 148.671 24.272C148.703 25.456 148.719 26.592 148.719 27.68C148.719 28.704 148.687 29.728 148.623 30.752C148.591 31.776 148.543 32.72 148.479 33.584C149.119 33.552 149.791 33.472 150.495 33.344C151.231 33.184 151.935 33.008 152.607 32.816C153.279 32.624 153.903 32.416 154.479 32.192C155.055 31.936 155.519 31.696 155.871 31.472V20.192C155.359 20.16 154.719 20.048 153.951 19.856C153.183 19.664 152.495 19.456 151.887 19.232ZM166.2 16.736C166.872 16.672 167.624 16.576 168.456 16.448C169.288 16.288 170.12 16.112 170.952 15.92C171.784 15.728 172.552 15.536 173.256 15.344C173.96 15.12 174.52 14.912 174.936 14.72C174.872 15.264 174.808 15.76 174.744 16.208C174.712 16.656 174.68 17.136 174.648 17.648C174.648 18.16 174.632 18.72 174.6 19.328C174.6 19.936 174.6 20.656 174.6 21.488V31.184L176.616 32.72L181.224 30.704V23.216C181.224 22.128 181.192 21.232 181.128 20.528C181.096 19.824 181 19.264 180.84 18.848C180.68 18.432 180.456 18.128 180.168 17.936C179.912 17.712 179.544 17.536 179.064 17.408V16.784C180.6 16.688 182.104 16.464 183.576 16.112C185.08 15.76 186.376 15.312 187.464 14.768V26.096C187.464 27.6 187.496 28.832 187.56 29.792C187.624 30.72 187.736 31.472 187.896 32.048C188.056 32.624 188.264 33.04 188.52 33.296C188.808 33.552 189.176 33.728 189.624 33.824V34.352C189.208 34.544 188.744 34.832 188.232 35.216C187.72 35.6 187.224 36.032 186.744 36.512C186.264 36.992 185.832 37.488 185.448 38C185.064 38.48 184.776 38.928 184.584 39.344C183.528 38.448 182.76 37.616 182.28 36.848C181.832 36.08 181.528 35.136 181.368 34.016C180.408 34.496 179.56 34.944 178.824 35.36C178.12 35.776 177.464 36.192 176.856 36.608C176.28 37.024 175.736 37.456 175.224 37.904C174.744 38.352 174.248 38.832 173.736 39.344C173.096 38.768 172.52 38.288 172.008 37.904C171.528 37.488 171.048 37.12 170.568 36.8C170.12 36.48 169.656 36.192 169.176 35.936C168.728 35.648 168.216 35.344 167.64 35.024C167.768 34.832 167.88 34.4 167.976 33.728C168.104 33.056 168.216 32.24 168.312 31.28C168.408 30.32 168.472 29.296 168.504 28.208C168.568 27.088 168.6 26.016 168.6 24.992C168.6 23.84 168.552 22.848 168.456 22.016C168.392 21.152 168.264 20.416 168.072 19.808C167.88 19.2 167.624 18.704 167.304 18.32C167.016 17.904 166.632 17.552 166.152 17.264L166.2 16.736ZM199.909 18.656C199.845 19.168 199.797 19.664 199.765 20.144C199.765 20.624 199.765 21.184 199.765 21.824C199.765 22.464 199.781 23.104 199.813 23.744C199.845 24.384 199.893 24.96 199.957 25.472C200.565 25.248 201.189 25.056 201.829 24.896C202.501 24.736 203.237 24.592 204.037 24.464C204.869 24.336 205.797 24.224 206.821 24.128C207.845 24.032 209.045 23.936 210.421 23.84C210.325 24.96 210.277 26.592 210.277 28.736C210.277 30.56 210.309 32.192 210.373 33.632C210.437 35.04 210.549 36.112 210.709 36.848C209.717 36.848 208.709 36.912 207.685 37.04C206.661 37.168 205.685 37.344 204.757 37.568C203.829 37.792 202.965 38.064 202.165 38.384C201.365 38.704 200.693 39.056 200.149 39.44C199.765 39.088 199.333 38.784 198.853 38.528C198.405 38.272 197.861 38.064 197.221 37.904C196.581 37.712 195.829 37.568 194.965 37.472C194.101 37.344 193.077 37.248 191.893 37.184C191.957 36.192 192.149 35.184 192.469 34.16C192.821 33.104 193.253 32.256 193.765 31.616C194.501 31.616 195.653 31.888 197.221 32.432C198.789 32.976 200.869 33.824 203.461 34.976C203.653 33.952 203.797 33.024 203.893 32.192C203.989 31.328 204.037 30.432 204.037 29.504C204.037 28.928 204.037 28.512 204.037 28.256C204.037 28 204.021 27.76 203.989 27.536C202.581 27.664 200.949 27.904 199.093 28.256C197.237 28.576 195.493 28.96 193.861 29.408C193.989 28.032 194.069 26.976 194.101 26.24C194.133 25.472 194.149 24.784 194.149 24.176C194.149 22.736 194.069 21.472 193.909 20.384C193.781 19.296 193.557 18.288 193.237 17.36C194.453 17.36 195.765 17.152 197.173 16.736C198.581 16.32 200.341 15.664 202.453 14.768C204.469 15.792 207.477 16.448 211.477 16.736C210.901 18.112 210.245 19.12 209.509 19.76C208.773 20.368 207.861 20.672 206.773 20.672C206.293 20.672 205.749 20.624 205.141 20.528C204.533 20.432 203.909 20.288 203.269 20.096C202.661 19.904 202.053 19.696 201.445 19.472C200.869 19.216 200.357 18.944 199.909 18.656Z" fill="black"/>
</svg>
